<svg xmlns="http://www.w3.org/2000/svg" fill="none" viewBox="0 0 24 24" stroke-width="1.5" stroke="currentColor">
    <g stroke-linecap="round" stroke-linejoin="round">
        <path d="m18.3098 18.3098c1.6735-1.6735 2.6136-3.9432 2.6136-6.3098 0-1.1318-.215-2.24138-.6223-3.2742l-.0781-.1913c-.8175.29136-1.7105.29136-2.528 0-.5222-.18667-.9964-.48727-1.388-.87999-.3927-.39164-.6933-.86577-.88-1.38801-.2913-.81748-.2913-1.68813 0-2.50561-1.1091-.48045-2.1948-.68429-3.4269-.68429-2.36668 0-4.63638.94014-6.30984 2.6136s-2.6136 3.94316-2.6136 6.3098c0 2.3666.94014 4.6363 2.6136 6.3098 1.67346 1.6734 3.94316 2.6136 6.30984 2.6136 2.3666 0 4.6363-.9402 6.3097-2.6136z"/>
        <path d="m15.854 10.7661-.0077-.0021-.0021.0077.0078.0021z" stroke-width="3"/>
        <path d="m10.6434 15.9495-.0078-.0021-.002.0077.0077.0021z" stroke-width="3"/>
        <path d="m8.80375 8.86871-.00773-.00207-.00207.00773.00773.00207z" stroke-width="3"/>
        <path d="m13.3479 6.02966-.0077-.00207-.0021.00773.0078.00207z"/>
        <path d="m5.91429 13.4934-.00772-.0021-.00207.0077.00772.0021z"/>
        <path d="m16.2211 16.2633-.0077-.0021-.0021.0078.0077.002z"/>
    </g>
</svg>
